<svg width="90" height="131" viewBox="0 0 90 131" fill="none" xmlns="http://www.w3.org/2000/svg">
<path d="M38.6673 68.2995C39.1211 66.5528 39.6939 64.883 40.3746 63.2538C41.3001 61.0349 42.4211 58.92 43.715 56.8954C45.739 53.7252 48.2438 51.025 51.3304 48.8807C51.847 48.5214 52.3502 48.1418 52.8826 47.8096C53.3229 47.5362 53.8014 47.3261 54.2597 47.0798C54.7022 46.8448 55.1605 46.6324 55.5738 46.3522C56.0074 46.0607 56.3286 45.6382 56.2433 45.0778C56.1444 44.4361 55.7917 43.9028 55.165 43.6995C53.5296 43.1707 51.8897 42.6397 50.2274 42.2082C47.7967 41.5732 45.3145 41.1823 42.8187 40.8931C39.2087 40.4751 35.5875 40.3621 31.955 40.4502C31.8315 40.4525 31.7057 40.4502 31.5664 40.3711C32.0494 40.2672 32.5301 40.1519 33.0131 40.057C35.2528 39.6232 37.5104 39.3204 39.7838 39.1668C42.2054 39.0041 44.6271 39.0289 47.0487 39.2368C51.8807 39.6526 56.5151 40.814 60.9315 42.8341C63.771 44.1333 66.424 45.7399 68.8209 47.7599C69.2051 48.0831 69.5667 48.431 69.9194 48.8807C69.7375 48.8852 69.5555 48.892 69.3736 48.8965C64.1147 49.0185 59.213 50.372 54.7314 53.1761C53.2465 54.1048 51.8717 55.1804 50.643 56.4299C47.9068 59.2182 45.8491 62.4517 44.4451 66.1054C43.3736 68.896 42.6794 71.7837 42.2638 74.7438C42.2481 74.85 42.2324 74.9584 42.2077 75.0624C42.2009 75.094 42.1695 75.1211 42.1156 75.1957C41.399 75.1324 40.6487 75.0872 39.9051 74.9946C37.1645 74.6534 34.4463 74.1699 31.7641 73.4988C27.0466 72.3215 22.5021 70.6856 18.2474 68.2927C14.7565 66.3291 11.6093 63.9295 8.97646 60.879C6.06061 57.4987 4.13993 53.6077 3.07737 49.2761C3.05266 49.1767 3.05716 49.0727 3.03918 48.8671C3.16723 49.023 3.23912 49.0976 3.29528 49.1835C5.04299 51.7797 7.06925 54.141 9.24378 56.3847C12.236 59.4713 15.5966 62.0698 19.3414 64.1599C22.6279 65.9924 26.1144 67.2849 29.8142 67.9605C32.7323 68.4961 35.6661 68.5864 38.6673 68.2995Z" fill="white"/>
<path d="M0 32.2492C0.0831173 31.7227 0.159495 31.1962 0.249352 30.672C0.846898 27.1267 2.44185 23.2199 4.09521 19.8283C5.98669 15.9147 7.66027 13.6122 10.0594 10.3426C13.8828 5.77146 16.9739 3.05545 22.6124 1.36077C25.7551 0.621886 27.1749 0.3304 29.419 0.167711C31.5419 0.0140596 33.0088 -0.0559873 35.6326 0.0524723C40.7544 0.576694 43.9062 0.606069 48.4597 2.37532C48.5652 2.42051 48.6641 2.47926 48.7427 2.59223C48.5001 2.59223 48.2552 2.61257 48.0126 2.58998C45.254 2.32109 42.4887 2.27815 39.7278 2.40243C31.8429 2.75266 24.3848 4.62585 17.6209 8.86708C11.277 12.8462 6.51909 18.2895 3.07309 24.9281C1.90945 27.1719 0.952479 29.506 0.213409 31.926C0.177466 32.0435 0.128045 32.1543 0.0853636 32.2695C0.0561602 32.2627 0.0292034 32.2559 0 32.2492Z" fill="white"/>
<path d="M45.1441 74.9096C45.4586 74.9706 45.7708 75.0339 46.0853 75.0926C48.7653 75.5739 51.3981 75.4609 53.9904 74.5548C62.1607 71.6965 70.3354 68.8517 78.5078 66.0001C78.8628 65.8758 79.2289 65.7764 79.5681 65.616C79.8557 65.4804 80.141 65.3087 80.3746 65.094C80.7048 64.7935 80.8374 64.3958 80.6374 63.9642C80.2668 63.1643 79.9231 62.3464 79.4828 61.5871C78.5303 59.9422 77.2992 58.5028 76.0637 57.068C74.462 55.2061 72.6874 53.5227 70.8633 51.889C70.7352 51.7738 70.6139 51.6518 70.4117 51.4552C71.2968 51.3852 72.0763 51.4326 72.8581 51.4371C73.6556 51.4416 74.2688 51.7354 74.8507 52.298C76.1468 53.5521 77.4363 54.8084 78.5685 56.2139C81.217 59.497 83.4679 63.0242 84.9797 66.9943C85.0696 67.2293 85.146 67.4666 85.2403 67.7377C85.0853 67.7919 84.9573 67.8462 84.8225 67.8846C77.926 69.8979 71.034 71.9292 64.2049 74.1662C62.6886 74.6633 61.179 75.174 59.6739 75.705C56.9175 76.6766 54.0915 77.1714 51.169 76.9726C49.291 76.8461 47.4893 76.3919 45.8225 75.479C45.5754 75.3434 45.3418 75.1853 45.1036 75.0361C45.1149 74.9932 45.1283 74.9503 45.1441 74.9096Z" fill="white"/>
<path d="M84.0138 71.3936C84.8562 71.0795 85.6087 70.7994 86.377 70.5146C86.9633 71.1993 87.3991 71.9382 87.7608 72.7268C88.4796 74.2972 88.8795 75.9602 89.1401 77.6594C89.6163 80.7595 89.6792 83.88 89.495 87.0073C89.4097 88.4466 89.2883 89.886 89.1805 91.3773C88.9491 91.3773 88.7762 91.3908 88.6032 91.375C86.6915 91.2101 84.7798 91.0338 82.8658 90.8779C81.2574 90.7469 79.6445 90.6361 78.0338 90.5186C76.2254 90.3853 74.4193 90.2475 72.611 90.1277C71.1778 90.0328 69.7445 89.9538 68.3113 89.8769C66.7703 89.7956 65.2248 89.7685 63.6882 89.6419C62.1337 89.5131 60.669 89.0296 59.3189 88.2365C56.8861 86.8107 55.2349 84.7161 54.1207 82.052C54.3881 82.1379 54.4959 82.3028 54.6284 82.4294C56.0818 83.81 57.715 84.8923 59.6424 85.4843C60.4174 85.7216 61.2104 85.8391 62.0214 85.8797C63.0772 85.934 64.1308 86.0492 65.1866 86.1396C66.2401 86.23 67.2959 86.3249 68.3495 86.413C69.9579 86.5463 71.5686 86.6796 73.1771 86.8062C74.3227 86.8966 75.4662 86.9824 76.6118 87.0638C77.9552 87.1587 79.2963 87.2671 80.6396 87.3372C82.4143 87.4276 84.189 87.5134 85.9659 87.5496C86.97 87.5699 87.0082 87.5044 87.1767 86.5237C87.2441 86.1351 87.289 85.7374 87.2868 85.342C87.2733 83.5546 87.3115 81.7628 87.1924 79.9823C87.0801 78.2672 86.6511 76.5952 85.9344 75.0248C85.4649 73.9944 84.8966 73.0092 84.3687 72.006C84.2743 71.8252 84.1598 71.6444 84.0138 71.3936Z" fill="white"/>
<path d="M40.1326 129.737C39.2093 129.866 38.423 129.993 37.6323 130.083C36.2777 130.237 34.9231 130.393 33.5663 130.501C30.8818 130.716 28.1951 130.835 25.4994 130.774C23.7382 130.734 21.9883 130.614 20.2541 130.311C19.1039 130.11 17.9627 129.855 16.9114 129.335C16.3386 129.053 15.7702 128.714 15.2827 128.302C13.3463 126.673 14.0135 123.329 16.2667 122.486C16.8418 122.272 17.4281 122.127 18.0413 122.082C19.688 121.962 21.2986 122.199 22.8913 122.572C26.4474 123.408 29.8328 124.735 33.1462 126.253C35.2983 127.238 37.4009 128.33 39.5238 129.378C39.6923 129.462 39.8518 129.57 40.1326 129.737Z" fill="white"/>
<path d="M85.7636 94.8876C86.0017 94.8876 86.1994 94.8718 86.3926 94.8899C87.1047 94.9599 87.8146 95.0435 88.5492 95.1226C88.52 95.2763 88.511 95.4006 88.475 95.518C87.1654 99.7005 85.7322 103.838 83.8699 107.812C83.1892 109.268 82.403 110.664 81.4887 111.986C81.0057 112.684 80.4733 113.344 79.7971 113.866C79.3816 114.189 78.939 114.483 78.3954 114.485C78.0809 114.485 77.7439 114.449 77.4519 114.336C74.2395 113.082 71.1192 111.636 68.1338 109.891C66.2603 108.795 64.5215 107.541 62.9895 106C62.1853 105.194 61.4866 104.299 60.9677 103.277C60.296 101.956 59.9838 100.573 60.3073 99.0407C60.3769 99.1017 60.442 99.1334 60.4645 99.1853C61.3316 101.223 62.7222 102.862 64.3575 104.306C66.7747 106.441 69.5647 107.946 72.5637 109.055C73.9385 109.564 75.365 109.927 76.769 110.354C77.0633 110.445 77.3508 110.4 77.5889 110.219C77.9461 109.948 78.3145 109.681 78.6133 109.351C79.4287 108.454 80.0487 107.415 80.6418 106.359C82.2839 103.431 83.5936 100.345 84.8426 97.2308C85.1503 96.4626 85.4491 95.6898 85.7636 94.8876Z" fill="white"/>
<path d="M44.5624 129.953C46.0562 128.66 47.7321 127.594 48.7205 125.797C49.7898 125.648 50.8973 125.528 51.989 125.336C58.2026 124.243 63.9983 122.125 69.0528 118.223C69.9334 117.543 70.7443 116.77 71.5643 116.013C71.8024 115.794 71.9978 115.726 72.2696 115.891C72.346 115.936 72.4336 115.961 72.5145 116C73.6669 116.531 74.8193 117.062 76.0391 117.622C72.364 121.287 68.1565 124.084 63.4727 126.168C57.4545 128.845 51.1399 130.077 44.5624 129.953Z" fill="white"/>
<path d="M27.5318 50.0284C27.5812 53.0946 25.0203 55.5123 22.1179 55.5304C19.3683 55.5485 16.6322 53.3409 16.6389 50.0351C16.6457 46.7633 19.3391 44.5602 22.0865 44.5602C25.027 44.5602 27.5655 46.9983 27.5318 50.0284Z" fill="white"/>
</svg>
